<?xml version="1.0" encoding="utf-8"?>
<svg version="1.1" id="Calque_1" xmlns="http://www.w3.org/2000/svg" xmlns:xlink="http://www.w3.org/1999/xlink" x="0px" y="0px"
	 viewBox="0 0 125 125" style="enable-background:new 0 0 125 125;" xml:space="preserve">
<style type="text/css">
	.st0{fill:#B4D0E0;}
</style>
<g>
	<g>
		<g>
			<g>
				<path class="st0" d="M1,106.8c-1.5-1.6-1.3-4.1,0.3-5.6l33.4-30.4c1.6-1.5,4.1-1.3,5.6,0.3l11.9,13.2c1.5,1.6,1.3,4.1-0.3,5.6
					l-33.4,30.4c-1.6,1.5-4.1,1.3-5.6-0.3L1,106.8z"/>
			</g>
		</g>
	</g>
	<g>
		<path class="st0" d="M81.2,0c4.8,0,9.6,0.8,14.3,2.4c22.9,7.9,35,32.8,27.1,55.7c-6.3,18.1-23.2,29.5-41.4,29.5
			c-4.8,0-9.6-0.8-14.3-2.4c-22.9-7.9-35-32.8-27.1-55.7C46.1,11.4,63.1,0,81.2,0 M81.2,11.9c-13.6,0-25.7,8.6-30.2,21.5
			c-2.8,8.1-2.3,16.7,1.5,24.4c3.7,7.7,10.2,13.4,18.3,16.2c3.4,1.2,6.9,1.8,10.4,1.8c13.6,0,25.7-8.6,30.2-21.5
			c2.8-8.1,2.3-16.7-1.5-24.4c-3.7-7.7-10.2-13.4-18.3-16.2l0,0C88.3,12.5,84.7,11.9,81.2,11.9L81.2,11.9z"/>
	</g>
</g>
</svg>
