<?xml version="1.0" encoding="utf-8"?>
<svg version="1.1" id="Calque_1" xmlns="http://www.w3.org/2000/svg" xmlns:xlink="http://www.w3.org/1999/xlink" x="0px" y="0px"
	 viewBox="0 0 125 125" style="enable-background:new 0 0 125 125;" xml:space="preserve">
<style type="text/css">
	.st0{fill:#B4D0E0;}
</style>
<g>
	<path class="st0" d="M62.5,0C97,0,125,22.6,125,50.4c0,11.1-4.5,21.4-12,29.7l11.6,28.9l-49.2-9.9c-5.1,0.1-10.9,1.4-16.7,1.5
		c-0.7,0-1.3,0-2,0C23.3,100.7,0,77.7,0,50.4C0,22.6,28,0,62.5,0 M62.5,13.7c-26.9,0-48.8,16.5-48.8,36.8C13.7,71.3,32.2,87,56.7,87
		c0.5,0,1.1,0,1.6,0c2.3-0.1,4.8-0.4,7.5-0.7c3-0.4,6-0.7,9.2-0.8l1.5,0l1.5,0.3l24.4,4.9l-2.2-5.4l-3.2-7.9l5.7-6.3
		c3.9-4.3,8.5-11.3,8.5-20.5C111.3,30.2,89.4,13.7,62.5,13.7L62.5,13.7z"/>
</g>
</svg>
