<?xml version="1.0" encoding="utf-8"?>
<!-- Generator: Adobe Illustrator 21.0.0, SVG Export Plug-In . SVG Version: 6.00 Build 0)  -->
<svg version="1.1" id="Calque_1" xmlns="http://www.w3.org/2000/svg" xmlns:xlink="http://www.w3.org/1999/xlink" x="0px" y="0px"
	 viewBox="0 0 100 100" style="enable-background:new 0 0 100 100;" xml:space="preserve">
<style type="text/css">
	.st0{fill:#19324B;}
</style>
<g>
	<path class="st0" d="M99.9,75.8L99.9,75.8L100,1.3l0-0.3l0,0v0l-0.1,0l-72.5,9.7l0,0v58.9c-2.9-0.9-6.1-1.3-9.5-1
		c-10.7,1-18.6,8.6-17.8,16.9c0.8,8.3,10.1,14.2,20.8,13.2c10.7-1,18.6-8.6,17.8-16.9c0-0.1,0-0.3-0.1-0.4h0.1V30.4l50-7.3V64
		c-2.9-0.9-6.1-1.3-9.5-1C68.5,64,60.5,71.6,61.4,80c0.8,8.3,10.1,14.2,20.8,13.2c10.7-1,18.6-8.6,17.8-16.9
		C99.9,76.1,99.9,75.9,99.9,75.8z"/>
</g>
</svg>
