<?xml version="1.0" encoding="utf-8"?>
<svg version="1.1" id="Calque_1" xmlns="http://www.w3.org/2000/svg" xmlns:xlink="http://www.w3.org/1999/xlink" x="0px" y="0px"
	 viewBox="0 0 100 100" style="enable-background:new 0 0 100 100;" xml:space="preserve">
<style type="text/css">
	.st0{fill:#19324B;}
</style>
<g>
	<g>
		<path class="st0" d="M0.8,86.9c-1.2-1.3-1.1-3.3,0.2-4.5l26.8-24.3c1.3-1.2,3.3-1.1,4.5,0.2l9.6,10.6c1.2,1.3,1.1,3.3-0.2,4.5
			L14.8,97.7c-1.3,1.2-3.3,1.1-4.5-0.2L0.8,86.9z"/>
	</g>
	<g>
		<path class="st0" d="M65,1.5c3.8,0,7.7,0.6,11.5,1.9c18.3,6.3,28,26.3,21.7,44.6c-5,14.5-18.6,23.6-33.1,23.6
			c-3.8,0-7.7-0.6-11.5-1.9c-18.3-6.3-28-26.3-21.7-44.6C36.9,10.6,50.4,1.5,65,1.5 M65,11.9c-10.5,0-19.8,6.7-23.3,16.6
			c-2.1,6.2-1.7,12.9,1.1,18.8c2.9,5.9,7.9,10.3,14.1,12.5c2.6,0.9,5.3,1.4,8,1.4c10.5,0,19.8-6.7,23.3-16.6
			c2.1-6.2,1.7-12.9-1.1-18.8c-2.9-5.9-7.9-10.4-14.1-12.5l0,0C70.4,12.4,67.7,11.9,65,11.9L65,11.9z"/>
	</g>
</g>
</svg>
