<?xml version="1.0" encoding="utf-8"?>
<!-- Generator: Adobe Illustrator 21.0.0, SVG Export Plug-In . SVG Version: 6.00 Build 0)  -->
<svg version="1.1" id="Calque_1" xmlns="http://www.w3.org/2000/svg" xmlns:xlink="http://www.w3.org/1999/xlink" x="0px" y="0px"
	 viewBox="0 0 200 200" style="enable-background:new 0 0 200 200;" xml:space="preserve">
<style type="text/css">
	.st0{fill:#F2F2F2;}
</style>
<path class="st0" d="M195,10H5c-2.8,0-5-2.2-5-5s2.2-5,5-5h190c2.8,0,5,2.2,5,5S197.8,10,195,10z"/>
<path class="st0" d="M195,105H5c-2.8,0-5-2.2-5-5s2.2-5,5-5h190c2.8,0,5,2.2,5,5S197.8,105,195,105z"/>
<path class="st0" d="M195,200H5c-2.8,0-5-2.2-5-5s2.2-5,5-5h190c2.8,0,5,2.2,5,5S197.8,200,195,200z"/>
</svg>
