<?xml version="1.0" encoding="utf-8"?>
<svg version="1.1" id="Calque_1" xmlns="http://www.w3.org/2000/svg" xmlns:xlink="http://www.w3.org/1999/xlink" x="0px" y="0px"
	 viewBox="0 0 100 100" style="enable-background:new 0 0 100 100;" xml:space="preserve">
<style type="text/css">
	.st0{fill:#575756;}
	.st1{fill:#9C9B9B;}
	.st2{fill:#1D1D1B;}
</style>
<g>
	<g>
		<path class="st0" d="M86.7,14.1c-2.1-0.9-4.3-1.8-6.6-2.5c0,0-0.1,0-0.1,0c-2.1-0.7-4.2-1.3-6.4-1.9c-0.1,0-0.2-0.1-0.4-0.1
			c-2-0.5-4.1-1-6.2-1.4c-0.2,0-0.4-0.1-0.6-0.1c-2-0.3-4-0.6-6-0.9c-0.3,0-0.5-0.1-0.8-0.1c-1.9-0.2-3.9-0.3-5.9-0.4
			c-0.3,0-0.6,0-0.9,0c-1,0-1.9,0-2.9,0c-1,0-1.9,0-2.9,0c-0.3,0-0.6,0-0.9,0c-2,0.1-3.9,0.2-5.9,0.4c-0.3,0-0.5,0.1-0.8,0.1
			c-2,0.2-4,0.5-6,0.9c-0.2,0-0.4,0.1-0.6,0.1c-2.1,0.4-4.1,0.8-6.2,1.4c-0.1,0-0.2,0.1-0.4,0.1c-2.2,0.6-4.3,1.2-6.4,1.9
			c0,0-0.1,0-0.1,0c-2.2,0.8-4.4,1.6-6.6,2.5c0,0,0,0,0,0c-2.2,1-4.4,2-6.6,3.1c0.1,2.4,0.3,4.9,0.6,7.2c0,0,0,0,0,0
			c0.3,2.3,0.6,4.7,1.1,7c0,0,0,0.1,0,0.1c0.4,2.2,0.9,4.4,1.5,6.5c0,0.1,0.1,0.2,0.1,0.4c0.6,2,1.2,4,1.9,6
			c0.1,0.2,0.1,0.4,0.2,0.6c0.7,1.9,1.4,3.8,2.2,5.6c0.1,0.3,0.2,0.5,0.3,0.8c0.8,1.8,1.7,3.6,2.6,5.3c0.1,0.3,0.3,0.5,0.4,0.8
			c0.9,1.7,1.9,3.4,2.9,5c0.2,0.3,0.3,0.5,0.5,0.8c1,1.7,2.2,3.3,3.3,4.9c0.2,0.2,0.3,0.4,0.5,0.6c1.2,1.6,2.4,3.2,3.8,4.7
			c0.1,0.2,0.3,0.3,0.4,0.5c1.4,1.6,2.8,3.2,4.3,4.7c0.1,0.1,0.2,0.2,0.3,0.3c1.6,1.6,3.2,3.1,4.8,4.6c0,0,0.1,0.1,0.1,0.1
			c1.8,1.6,3.6,3,5.5,4.4c0,0,0,0,0,0c1.9,1.4,3.9,2.8,6,4.1c2-1.3,4-2.7,6-4.1c0,0,0,0,0,0c1.9-1.4,3.7-2.9,5.5-4.4
			c0,0,0.1,0,0.1-0.1c1.7-1.5,3.3-3,4.8-4.6c0.1-0.1,0.2-0.2,0.3-0.3c1.5-1.5,2.9-3.1,4.3-4.7c0.1-0.2,0.3-0.3,0.4-0.5
			c1.3-1.5,2.6-3.1,3.8-4.7c0.2-0.2,0.3-0.4,0.5-0.6c1.2-1.6,2.3-3.2,3.3-4.9c0.2-0.3,0.3-0.5,0.5-0.8c1-1.6,2-3.3,2.9-5
			c0.2-0.3,0.3-0.5,0.4-0.8c0.9-1.7,1.8-3.5,2.6-5.3c0.1-0.2,0.2-0.5,0.3-0.7c0.8-1.8,1.6-3.7,2.2-5.6c0.1-0.2,0.2-0.4,0.2-0.6
			c0.7-2,1.3-4,1.9-6c0-0.1,0.1-0.2,0.1-0.4c0.6-2.1,1.1-4.3,1.5-6.5c0,0,0-0.1,0-0.1c0.5-2.3,0.8-4.6,1.1-7c0,0,0,0,0,0
			c0.3-2.4,0.5-4.8,0.6-7.2C91.1,16.2,88.9,15.1,86.7,14.1C86.7,14.2,86.7,14.1,86.7,14.1z M85.6,27.2c-0.1,0.3-0.1,0.7-0.2,1
			c-0.4,2.2-0.8,4.4-1.4,6.5c0,0.1,0,0.2-0.1,0.3c-0.6,2.2-1.2,4.3-1.9,6.5v0c0,0,0,0,0,0c-2-1.1-4-2.1-6.1-2.9
			c-2-0.9-4.1-1.6-6.3-2.3c-1-0.3-2-0.6-3.1-0.9c-1.1-0.3-2.3-0.5-3.4-0.8c-1.7-0.3-3.4-0.6-5.2-0.8h0c-0.5-0.1-1-0.1-1.6-0.2
			c-2-0.2-3.9-0.3-5.9-0.3c-0.2,0-0.4,0-0.5,0c-0.2,0-0.3,0-0.5,0c-2,0-4,0.1-6,0.3c-0.5,0-1,0.1-1.6,0.2c-1.7,0.2-3.5,0.5-5.2,0.8
			c-1.1,0.2-2.3,0.5-3.4,0.8c-1,0.3-2,0.6-3.1,0.9c-2.1,0.7-4.2,1.4-6.3,2.3c0.6,1.8,1.2,3.5,1.9,5.2c0.1,0.3,0.3,0.7,0.4,1
			c0.8,1.8,1.6,3.5,2.5,5.2c0.1,0.3,0.3,0.5,0.4,0.8c0.9,1.7,1.9,3.4,2.9,5c0.2,0.3,0.3,0.5,0.5,0.8c1,1.6,2.1,3.2,3.3,4.7
			c0.2,0.3,0.5,0.6,0.7,0.9c1.1,1.5,2.3,2.9,3.5,4.3c0.4,0.4,0.8,0.9,1.1,1.3c1.1,1.2,2.3,2.4,3.5,3.6c0.8,0.7,1.5,1.4,2.3,2.1h0
			c0.9,0.8,1.8,1.6,2.8,2.3c1-0.8,1.9-1.5,2.8-2.3c0.8-0.7,1.6-1.4,2.3-2.1c1.2-1.1,2.4-2.3,3.5-3.6c0.4-0.4,0.8-0.8,1.1-1.3
			c1.2-1.4,2.4-2.8,3.5-4.3c0.2-0.3,0.5-0.6,0.7-0.9c1.2-1.5,2.3-3.1,3.3-4.7c0.2-0.3,0.3-0.5,0.5-0.8c1-1.6,2-3.3,2.9-5
			c2,0.8,4,1.8,5.9,2.9c0,0,0.1,0,0.1,0.1c-1,2-2.1,3.9-3.3,5.8v0c-1.2,1.9-2.4,3.7-3.8,5.5c0,0,0,0,0,0c-1.3,1.8-2.7,3.5-4.2,5.2
			l0,0c-1.5,1.7-3,3.3-4.6,4.9c-0.1,0.1-0.1,0.1-0.2,0.2c-1.6,1.5-3.2,3-4.9,4.4c-0.3,0.2-0.5,0.5-0.8,0.7c-1.5,1.3-3.1,2.5-4.7,3.6
			c-1.6-1.1-3.2-2.3-4.7-3.6c-0.3-0.2-0.5-0.5-0.8-0.7c-1.7-1.4-3.3-2.9-4.9-4.4h0c-0.1-0.1-0.1-0.1-0.2-0.2
			c-1.6-1.6-3.2-3.2-4.6-4.9l0,0c-1.5-1.7-2.9-3.4-4.2-5.2c0,0,0,0,0,0c-1.3-1.8-2.6-3.6-3.8-5.5c-1.2-1.9-2.3-3.8-3.3-5.8v0
			c-1.1-2-2-4-2.9-6v0c-0.9-2.1-1.7-4.1-2.4-6.3c0,0,0,0,0-0.1c-0.7-2.1-1.4-4.3-1.9-6.5c2-1.1,4.1-2,6.2-2.9
			c2.1-0.9,4.2-1.6,6.3-2.3c0.2-0.1,0.3-0.1,0.5-0.2c1.9-0.6,3.9-1.1,5.9-1.5c0.8-0.2,1.6-0.3,2.3-0.4c1.4-0.2,2.8-0.5,4.3-0.6
			c1-0.1,2.1-0.2,3.1-0.3c1.2-0.1,2.4-0.2,3.7-0.2c0.5,0,1.1,0,1.7,0c0.6,0,1.1,0,1.7,0c1.2,0,2.5,0.1,3.7,0.2
			c1,0.1,2.1,0.2,3.1,0.3c1.4,0.2,2.9,0.4,4.3,0.6c0.8,0.1,1.6,0.3,2.3,0.5c2,0.4,4,0.9,5.9,1.5c0.2,0,0.3,0.1,0.5,0.2
			c2.1,0.6,4.3,1.4,6.3,2.3c0.3-1,0.5-2,0.7-3v0c0.2-1.2,0.5-2.4,0.6-3.6c-1.1-0.4-2.3-0.9-3.5-1.3c-1-0.3-2-0.6-3-0.9
			c-1.6-0.5-3.2-0.9-4.9-1.3c-0.5-0.1-1.1-0.2-1.6-0.4c-1.8-0.4-3.6-0.7-5.5-0.9c-0.4,0-0.7-0.1-1.1-0.1c-1.9-0.2-3.8-0.4-5.7-0.5
			c-0.3,0-0.6,0-0.9,0C51.9,20,51,20,50,20c-1,0-1.9,0-2.9,0.1c-0.3,0-0.6,0-0.9,0c-1.9,0.1-3.9,0.2-5.8,0.5c-0.4,0-0.7,0.1-1.1,0.1
			c-1.8,0.2-3.7,0.6-5.5,0.9c-0.5,0.1-1.1,0.2-1.6,0.4c-1.6,0.4-3.3,0.8-4.9,1.3c-1,0.3-2,0.6-3,0.9c-1.2,0.4-2.3,0.8-3.5,1.3
			c-2.1,0.8-4.2,1.8-6.3,2.8c-0.1-0.3-0.1-0.7-0.2-1c-0.3-1.9-0.6-3.9-0.7-5.9c1.8-0.8,3.6-1.6,5.5-2.3c0.3-0.1,0.7-0.3,1-0.4
			c2.1-0.8,4.2-1.4,6.3-2c0.1,0,0.2,0,0.3-0.1c2.2-0.6,4.3-1.1,6.6-1.5c0,0,0,0,0.1,0c2.2-0.4,4.4-0.8,6.6-1c0,0,0,0,0,0
			c2.2-0.3,4.4-0.4,6.7-0.5c1.1,0,2.2-0.1,3.3-0.1c1.1,0,2.2,0,3.3,0.1c2.2,0.1,4.5,0.3,6.7,0.5c0,0,0,0,0,0c2.2,0.2,4.5,0.6,6.6,1
			c0,0,0,0,0.1,0c2.2,0.4,4.4,0.9,6.6,1.5c0.1,0,0.2,0,0.3,0.1c2.1,0.6,4.2,1.3,6.3,2c0.3,0.1,0.7,0.2,1,0.4
			c1.9,0.7,3.7,1.5,5.5,2.3C86.1,23.3,85.9,25.3,85.6,27.2z M67.3,42.5c-0.4,1-0.8,1.9-1.3,2.8c-0.5,1.1-1.1,2.2-1.7,3.3
			c-0.5,1-1.1,1.9-1.7,2.9v0c-0.6,1.1-1.3,2.1-2,3.1c-0.6,0.8-1.2,1.7-1.8,2.5c-0.9,1.2-1.8,2.3-2.7,3.4c-0.5,0.6-1,1.2-1.5,1.8
			c-1.4,1.5-2.8,3-4.3,4.4h-0.7c-1.5-1.4-2.9-2.9-4.3-4.4c-0.5-0.6-1-1.2-1.5-1.8c-0.9-1.1-1.8-2.2-2.7-3.4
			c-0.6-0.8-1.2-1.7-1.8-2.5c-0.7-1-1.4-2-2-3.1c-0.6-0.9-1.1-1.9-1.6-2.9c-0.6-1.1-1.2-2.2-1.7-3.3c-0.5-0.9-0.9-1.9-1.3-2.8
			c1.5-0.5,3.1-0.9,4.7-1.2c0.6-0.1,1.3-0.3,1.9-0.4c2.2-0.4,4.5-0.7,6.9-0.8c0,0,0.1,0,0.1,0h0C47.5,40,48.7,40,50,40
			c1.3,0,2.5,0,3.7,0.1c0,0,0.1,0,0.1,0c2.3,0.1,4.6,0.4,6.9,0.8c0.6,0.1,1.3,0.2,1.9,0.4C64.2,41.7,65.8,42.1,67.3,42.5z"/>
		<path class="st0" d="M49.9,46.7c-2.5,0-5,0.2-7.4,0.5c1,1.7,2.1,3.4,3.2,5c0.3,0.4,0.6,0.9,1,1.3c1,1.4,2.1,2.7,3.3,4
			c1.1-1.3,2.2-2.6,3.3-4c0.3-0.4,0.6-0.9,0.9-1.3c1.2-1.6,2.2-3.3,3.2-5c-2.4-0.3-4.9-0.5-7.4-0.5C50,46.7,50,46.7,49.9,46.7z"/>
		<path class="st1" d="M94.1,10.2c-0.3-0.1-0.6-0.3-0.9-0.4C91.6,9,89.8,8.2,88,7.5c-0.5-0.2-1.1-0.4-1.6-0.6
			c-1.5-0.6-3.1-1.2-4.7-1.7c-0.8-0.3-1.5-0.5-2.3-0.7c-1.4-0.4-2.8-0.8-4.2-1.2c-0.9-0.2-1.9-0.5-2.8-0.7C71.3,2.3,70,2,68.7,1.8
			c-1.1-0.2-2.1-0.4-3.2-0.6C64.4,1,63.2,0.9,62,0.7c-1.1-0.1-2.3-0.3-3.5-0.4c-1.1-0.1-2.2-0.2-3.3-0.2C54.1,0.1,52.9,0,51.6,0
			c-0.5,0-1.1,0-1.6,0c-0.6,0-1.1,0-1.6,0c-1.2,0-2.4,0.1-3.6,0.1c-1.1,0-2.2,0.1-3.3,0.2c-1.2,0.1-2.3,0.2-3.5,0.4
			c-1.2,0.1-2.3,0.3-3.5,0.5c-1.1,0.2-2.1,0.3-3.2,0.6C30,2,28.7,2.3,27.5,2.5c-0.9,0.2-1.9,0.4-2.8,0.7c-1.4,0.4-2.8,0.8-4.2,1.2
			c-0.8,0.2-1.5,0.5-2.3,0.7c-1.6,0.5-3.1,1.1-4.6,1.7C13,7.1,12.5,7.3,12,7.5C10.2,8.2,8.4,9,6.7,9.8c-0.3,0.1-0.6,0.3-0.9,0.4
			c-2,1-4,2-5.9,3.1c0,2.2,0.1,4.5,0.2,6.7c0,0.3,0,0.6,0.1,1c0.1,1.9,0.3,3.8,0.6,5.7C1,27.3,1,27.9,1.1,28.4
			c0.3,1.6,0.5,3.2,0.9,4.8c0.2,0.8,0.3,1.6,0.5,2.4c0.3,1.4,0.7,2.8,1,4.2c0.2,0.9,0.5,1.9,0.8,2.8c0.4,1.2,0.8,2.4,1.2,3.6
			c0.3,1,0.7,2.1,1.1,3.1c0.4,1.1,0.9,2.2,1.3,3.2c0.5,1.1,0.9,2.2,1.4,3.2c0.5,1,0.9,2,1.4,3c0.5,1.1,1.1,2.1,1.7,3.2
			c0.5,1,1.1,1.9,1.6,2.8c0.6,1,1.3,2.1,1.9,3.1c0.6,0.9,1.2,1.8,1.8,2.7c0.7,1,1.4,1.9,2.1,2.9c0.7,0.9,1.4,1.9,2.2,2.8
			c0.7,0.8,1.4,1.7,2.1,2.5c0.8,1,1.7,1.9,2.6,2.9c0.6,0.7,1.3,1.4,2,2.1c1,1,2.1,2,3.1,3c0.6,0.5,1.2,1.1,1.8,1.6
			c1.2,1.1,2.5,2.2,3.8,3.2c0.5,0.4,0.9,0.7,1.4,1.1c1.5,1.2,3,2.3,4.6,3.4c0.3,0.2,0.5,0.4,0.8,0.5c1.8,1.2,3.7,2.4,5.7,3.5
			c1.9-1.1,3.8-2.3,5.6-3.5c0.3-0.2,0.5-0.4,0.8-0.5c1.6-1.1,3.1-2.2,4.6-3.4c0.5-0.3,0.9-0.7,1.4-1.1c1.3-1,2.6-2.1,3.8-3.2
			c0.6-0.5,1.2-1,1.8-1.6c1.1-1,2.1-2,3.1-3c0.7-0.7,1.3-1.4,2-2.1c0.9-0.9,1.7-1.9,2.6-2.9c0.7-0.8,1.4-1.7,2.1-2.5
			c0.7-0.9,1.5-1.8,2.2-2.8c0.7-0.9,1.4-1.9,2.1-2.9c0.6-0.9,1.3-1.8,1.8-2.7c0.7-1,1.3-2,1.9-3.1c0.6-0.9,1.1-1.9,1.6-2.8
			c0.6-1.1,1.2-2.1,1.7-3.2c0.5-1,1-2,1.4-3c0.5-1.1,1-2.1,1.4-3.2c0.5-1.1,0.9-2.2,1.3-3.2c0.4-1,0.8-2.1,1.1-3.1
			c0.4-1.2,0.8-2.4,1.2-3.6c0.3-0.9,0.6-1.9,0.8-2.8c0.4-1.4,0.7-2.8,1-4.2c0.2-0.8,0.4-1.6,0.5-2.4c0.3-1.6,0.6-3.2,0.9-4.8
			c0.1-0.6,0.2-1.2,0.2-1.7c0.2-1.9,0.4-3.8,0.6-5.7c0-0.3,0.1-0.6,0.1-1c0.2-2.2,0.2-4.4,0.2-6.7C98.1,12.3,96.1,11.2,94.1,10.2z
			 M92.7,24.5C92.7,24.5,92.7,24.5,92.7,24.5c-0.3,2.4-0.6,4.7-1.1,7c0,0,0,0.1,0,0.1c-0.4,2.2-0.9,4.4-1.5,6.5
			c0,0.1-0.1,0.2-0.1,0.4c-0.6,2-1.2,4-1.9,6c-0.1,0.2-0.1,0.4-0.2,0.6c-0.7,1.9-1.4,3.8-2.2,5.6c-0.1,0.3-0.2,0.5-0.3,0.7
			c-0.8,1.8-1.6,3.6-2.6,5.3c-0.1,0.3-0.3,0.5-0.4,0.8c-0.9,1.7-1.9,3.4-2.9,5c-0.2,0.3-0.3,0.5-0.5,0.8c-1.1,1.7-2.2,3.3-3.3,4.9
			c-0.2,0.2-0.3,0.4-0.5,0.6c-1.2,1.6-2.4,3.2-3.8,4.7c-0.1,0.2-0.3,0.3-0.4,0.5c-1.4,1.6-2.8,3.2-4.3,4.7c-0.1,0.1-0.2,0.2-0.3,0.3
			c-1.6,1.6-3.2,3.1-4.8,4.6c0,0-0.1,0.1-0.1,0.1c-1.8,1.6-3.6,3-5.5,4.4c0,0,0,0,0,0c-1.9,1.4-3.9,2.8-6,4.1c-2.1-1.3-4-2.7-6-4.1
			c0,0,0,0,0,0c-1.9-1.4-3.7-2.9-5.5-4.4c0,0-0.1,0-0.1-0.1c-1.7-1.5-3.3-3-4.8-4.6c-0.1-0.1-0.2-0.2-0.3-0.3
			c-1.5-1.5-2.9-3.1-4.3-4.7c-0.1-0.2-0.3-0.3-0.4-0.5c-1.3-1.5-2.6-3.1-3.8-4.7c-0.2-0.2-0.3-0.4-0.5-0.6c-1.1-1.6-2.3-3.2-3.3-4.9
			c-0.2-0.3-0.3-0.5-0.5-0.8c-1-1.6-2-3.3-2.9-5c-0.1-0.3-0.3-0.5-0.4-0.8c-0.9-1.7-1.8-3.5-2.6-5.3c-0.1-0.2-0.2-0.5-0.3-0.8
			c-0.8-1.8-1.6-3.7-2.2-5.6c-0.1-0.2-0.2-0.4-0.2-0.6c-0.7-2-1.3-4-1.9-6c0-0.1-0.1-0.2-0.1-0.4c-0.6-2.1-1.1-4.3-1.5-6.5
			c0,0,0-0.1,0-0.1c-0.5-2.3-0.8-4.6-1.1-7c0,0,0,0,0,0c-0.3-2.4-0.5-4.8-0.6-7.2c2.1-1.1,4.3-2.2,6.6-3.1c0,0,0,0,0,0
			c2.1-0.9,4.3-1.8,6.6-2.5c0,0,0.1,0,0.1,0c2.1-0.7,4.2-1.3,6.4-1.9c0.1,0,0.2-0.1,0.4-0.1c2-0.5,4.1-1,6.2-1.4
			c0.2,0,0.4-0.1,0.6-0.1c2-0.4,4-0.6,6-0.9c0.3,0,0.5-0.1,0.8-0.1c1.9-0.2,3.9-0.3,5.9-0.4c0.3,0,0.6,0,0.9,0c1,0,1.9,0,2.9,0
			c1,0,2,0,2.9,0c0.3,0,0.6,0,0.9,0c2,0.1,3.9,0.2,5.9,0.4c0.3,0,0.5,0.1,0.8,0.1c2,0.2,4,0.5,6,0.9c0.2,0,0.4,0.1,0.6,0.1
			c2.1,0.4,4.1,0.8,6.2,1.4c0.1,0,0.2,0.1,0.4,0.1c2.2,0.6,4.3,1.2,6.4,1.9c0,0,0.1,0,0.1,0c2.2,0.8,4.4,1.6,6.6,2.5c0,0,0,0,0,0
			c2.2,1,4.4,2,6.6,3.1C93.2,19.7,93,22.1,92.7,24.5z"/>
		<path class="st1" d="M60.7,41c-2.2-0.4-4.5-0.7-6.9-0.8c0,0-0.1,0-0.1,0C52.5,40,51.2,40,50,40c-1.3,0-2.5,0-3.7,0.1h0
			c0,0-0.1,0-0.1,0c-2.3,0.2-4.6,0.4-6.9,0.8c-0.6,0.1-1.3,0.2-1.9,0.4c-1.6,0.3-3.1,0.7-4.7,1.2c0.4,1,0.8,1.9,1.3,2.8
			c0.5,1.1,1.1,2.2,1.7,3.3c0.5,1,1.1,1.9,1.6,2.9c0.6,1.1,1.3,2.1,2,3.1c0.6,0.8,1.2,1.7,1.8,2.5c0.9,1.2,1.8,2.3,2.7,3.4
			c0.5,0.6,1,1.2,1.5,1.8c1.4,1.5,2.8,3,4.3,4.4h0.7c1.5-1.4,2.9-2.9,4.3-4.4c0.5-0.6,1-1.2,1.5-1.8c0.9-1.1,1.8-2.2,2.7-3.4
			c0.6-0.8,1.2-1.7,1.8-2.5c0.7-1,1.4-2,2-3.1v0c0.6-0.9,1.1-1.9,1.7-2.9c0.6-1.1,1.2-2.2,1.7-3.3c0.5-0.9,0.9-1.9,1.3-2.8
			c-1.5-0.5-3.1-0.9-4.7-1.2C62,41.2,61.4,41.1,60.7,41z M54.2,52.2c-0.3,0.4-0.6,0.9-0.9,1.3c-1,1.4-2.1,2.7-3.3,4
			c-1.1-1.3-2.2-2.6-3.3-4c-0.3-0.4-0.6-0.9-1-1.3c-1.1-1.6-2.2-3.3-3.2-5c2.4-0.3,4.9-0.5,7.4-0.5c0,0,0.1,0,0.2,0
			c2.5,0,5,0.2,7.4,0.5C56.5,48.9,55.4,50.6,54.2,52.2z"/>
		<path class="st1" d="M79.8,18.6c-2.1-0.8-4.2-1.4-6.3-2c-0.1,0-0.2-0.1-0.3-0.1c-2.2-0.6-4.3-1.1-6.6-1.5c0,0,0,0-0.1,0
			c-2.2-0.4-4.4-0.8-6.6-1c0,0,0,0,0,0c-2.2-0.3-4.4-0.4-6.7-0.5c-1.1,0-2.2-0.1-3.3-0.1c-1.1,0-2.2,0-3.3,0.1
			c-2.2,0.1-4.5,0.3-6.7,0.5c0,0,0,0,0,0c-2.2,0.2-4.5,0.6-6.6,1c0,0,0,0-0.1,0c-2.2,0.4-4.4,0.9-6.6,1.5c-0.1,0-0.2,0-0.3,0.1
			c-2.1,0.6-4.2,1.3-6.3,2c-0.3,0.1-0.7,0.2-1,0.4c-1.9,0.7-3.7,1.5-5.5,2.3c0.2,2,0.4,4,0.7,5.9c0.1,0.3,0.1,0.7,0.2,1
			c2.1-1,4.1-1.9,6.3-2.8c1.1-0.4,2.3-0.9,3.5-1.3c1-0.3,2-0.6,3-0.9c1.6-0.5,3.2-0.9,4.9-1.3c0.5-0.1,1.1-0.3,1.6-0.4
			c1.8-0.4,3.6-0.7,5.5-0.9c0.4,0,0.7-0.1,1.1-0.1c1.9-0.2,3.8-0.4,5.8-0.5c0.3,0,0.6,0,0.9,0C48,20,49,20,50,20c1,0,1.9,0,2.9,0.1
			c0.3,0,0.6,0,0.9,0c1.9,0.1,3.9,0.2,5.7,0.5c0.4,0,0.7,0.1,1.1,0.1c1.9,0.2,3.7,0.6,5.5,0.9c0.5,0.1,1.1,0.2,1.6,0.4
			c1.6,0.4,3.3,0.8,4.9,1.3c1,0.3,2,0.6,3,0.9c1.2,0.4,2.3,0.8,3.5,1.3c-0.2,1.2-0.4,2.4-0.6,3.6v0c-0.2,1-0.4,2-0.7,3
			c-2.1-0.9-4.2-1.6-6.3-2.3c-0.2-0.1-0.3-0.1-0.5-0.2C69,29.1,67,28.6,65,28.2c-0.8-0.2-1.6-0.3-2.3-0.5c-1.4-0.2-2.8-0.5-4.3-0.6
			c-1-0.1-2.1-0.2-3.1-0.3c-1.2-0.1-2.4-0.2-3.7-0.2c-0.5,0-1.1,0-1.7,0c-0.6,0-1.1,0-1.7,0c-1.2,0-2.4,0.1-3.7,0.2
			c-1,0.1-2.1,0.2-3.1,0.3c-1.4,0.2-2.9,0.4-4.3,0.6c-0.8,0.1-1.6,0.3-2.3,0.4c-2,0.4-4,0.9-5.9,1.5c-0.2,0-0.3,0.1-0.5,0.2
			c-2.1,0.6-4.3,1.4-6.3,2.3c-2.1,0.9-4.2,1.8-6.2,2.9c0.6,2.2,1.2,4.3,1.9,6.5c0,0,0,0,0,0.1c0.7,2.1,1.5,4.2,2.4,6.3v0
			c0.9,2.1,1.8,4.1,2.9,6v0c1,2,2.1,3.9,3.3,5.8c1.2,1.9,2.4,3.7,3.8,5.5c0,0,0,0,0,0c1.3,1.8,2.7,3.5,4.2,5.2l0,0
			c1.5,1.7,3,3.3,4.6,4.9c0.1,0.1,0.1,0.1,0.2,0.2h0c1.6,1.6,3.2,3,4.9,4.4c0.3,0.2,0.5,0.5,0.8,0.7c1.5,1.3,3.1,2.5,4.7,3.6
			c1.6-1.1,3.2-2.3,4.7-3.6c0.3-0.2,0.5-0.5,0.8-0.7c1.7-1.4,3.3-2.9,4.9-4.4c0.1-0.1,0.1-0.1,0.2-0.2c1.6-1.6,3.2-3.2,4.6-4.9l0,0
			c1.5-1.7,2.9-3.4,4.2-5.2c0,0,0,0,0,0c1.3-1.8,2.6-3.6,3.8-5.5v0c1.2-1.9,2.3-3.8,3.3-5.8c0,0-0.1,0-0.1-0.1
			c-1.9-1.1-3.8-2.1-5.9-2.9c-0.9,1.7-1.9,3.4-2.9,5c-0.2,0.3-0.3,0.5-0.5,0.8c-1,1.6-2.1,3.2-3.3,4.7c-0.2,0.3-0.4,0.6-0.7,0.9
			c-1.1,1.5-2.3,2.9-3.5,4.3c-0.4,0.4-0.8,0.9-1.1,1.3c-1.1,1.2-2.3,2.4-3.5,3.6c-0.8,0.7-1.5,1.4-2.3,2.1c-0.9,0.8-1.8,1.6-2.8,2.3
			c-1-0.8-1.9-1.5-2.8-2.3h0c-0.8-0.7-1.6-1.4-2.3-2.1c-1.2-1.1-2.4-2.3-3.5-3.6c-0.4-0.4-0.8-0.8-1.1-1.3c-1.2-1.4-2.4-2.8-3.5-4.3
			c-0.2-0.3-0.5-0.6-0.7-0.9c-1.2-1.5-2.2-3.1-3.3-4.7c-0.2-0.3-0.3-0.5-0.5-0.8c-1-1.6-2-3.3-2.9-5c-0.2-0.3-0.3-0.5-0.4-0.8
			c-0.9-1.7-1.7-3.4-2.5-5.2c-0.2-0.3-0.3-0.7-0.4-1c-0.7-1.7-1.3-3.4-1.9-5.2c2-0.9,4.1-1.6,6.3-2.3c1-0.3,2-0.6,3.1-0.9
			c1.1-0.3,2.3-0.6,3.4-0.8c1.7-0.3,3.4-0.6,5.2-0.8c0.5-0.1,1-0.1,1.6-0.2c2-0.2,3.9-0.3,6-0.3c0.2,0,0.3,0,0.5,0
			c0.2,0,0.4,0,0.5,0c2,0,4,0.1,5.9,0.3c0.5,0,1,0.1,1.6,0.2h0c1.7,0.2,3.5,0.5,5.2,0.8c1.1,0.2,2.3,0.5,3.4,0.8
			c1,0.3,2.1,0.6,3.1,0.9c2.1,0.7,4.2,1.4,6.3,2.3c2.1,0.9,4.1,1.9,6.1,2.9c0,0,0,0,0,0v0c0.7-2.1,1.4-4.3,1.9-6.5
			c0-0.1,0-0.2,0.1-0.3c0.5-2.1,1-4.3,1.4-6.5c0.1-0.3,0.1-0.7,0.2-1c0.3-1.9,0.6-3.9,0.7-5.9c-1.8-0.8-3.6-1.6-5.5-2.3
			C80.5,18.9,80.1,18.7,79.8,18.6z"/>
	</g>
	<g>
		<g>
			<path class="st2" d="M8.2,14.7c-1.9,0-3.5-0.7-4.9-2C1.8,11.2,1,9.2,1.1,7.2c0-1.9,0.7-3.5,2-4.9C4.5,0.8,6.5,0,8.6,0
				c1.9,0,3.5,0.7,4.9,2c1.5,1.4,2.3,3.4,2.3,5.5c0,1.9-0.7,3.5-2,4.9C12.3,13.9,10.3,14.7,8.2,14.7z M10.4,9.7
				c0.8-0.7,1.2-1.6,1.1-2.7c0-0.7-0.3-1.3-0.7-1.8c-0.7-0.8-1.6-1.2-2.7-1.1c-0.7,0-1.3,0.3-1.8,0.7C5.6,5.7,5.2,6.5,5.3,7.6
				c0,0.7,0.3,1.3,0.7,1.8c0.7,0.8,1.6,1.2,2.7,1.1C9.3,10.4,9.9,10.2,10.4,9.7z"/>
			<path class="st2" d="M23.8,0c3.5,0,5.2,1.7,5.2,5.2c0,3.5-1.7,5.2-5.2,5.2h-4V6.3h4c0.7,0,1-0.4,1-1.1c0-0.7-0.4-1-1-1h-3.1v10.5
				h-4.2V0H23.8z"/>
			<path class="st2" d="M40.1,0v4.2h-5.2v2.1h5.2v3.1h-5.2v1h5.2v4.2h-9.4V0H40.1z"/>
			<path class="st2" d="M55.5,0v14.7L46,8.4v6.3h-4.2V0l9.4,6.8V0H55.5z"/>
			<path class="st2" d="M78.7,14.7H64.6l6.8-10.5h-6.8V0h14.1L72,10.5h6.8V14.7z"/>
			<path class="st2" d="M83.6,0v14.7h-4.2V0H83.6z"/>
			<path class="st2" d="M89.5,9.3v5.4h-4.2V0h4.2v6.8L93.7,0H99L94,7.3l4.9,7.4h-5.2L89.5,9.3z"/>
		</g>
		<polygon class="st2" points="75.9,9.4 64.6,9.4 67.5,5.2 78.7,5.2 		"/>
	</g>
</g>
</svg>
