<?xml version="1.0" encoding="utf-8"?>
<!-- Generator: Adobe Illustrator 21.0.0, SVG Export Plug-In . SVG Version: 6.00 Build 0)  -->
<svg version="1.1" id="Calque_1" xmlns="http://www.w3.org/2000/svg" xmlns:xlink="http://www.w3.org/1999/xlink" x="0px" y="0px"
	 viewBox="0 0 200 200" style="enable-background:new 0 0 200 200;" xml:space="preserve">
<style type="text/css">
	.st0{fill:#F2F2F2;}
</style>
<g>
	<path class="st0" d="M195.2,200c-1.2,0-2.4-0.5-3.4-1.4L1.4,8.1c-1.9-1.9-1.9-4.9,0-6.7c1.9-1.9,4.9-1.9,6.7,0l190.5,190.5
		c1.9,1.9,1.9,4.9,0,6.7C197.7,199.5,196.5,200,195.2,200z"/>
	<path class="st0" d="M4.8,200c-1.2,0-2.4-0.5-3.4-1.4c-1.9-1.9-1.9-4.9,0-6.7L191.9,1.4c1.9-1.9,4.9-1.9,6.7,0
		c1.9,1.9,1.9,4.9,0,6.7L8.1,198.6C7.2,199.5,6,200,4.8,200z"/>
</g>
</svg>
